<?xml version="1.0" encoding="utf-8"?>
<!-- Generator: Adobe Illustrator 19.0.0, SVG Export Plug-In . SVG Version: 6.00 Build 0)  -->
<svg version="1.1" id="Layer_1" xmlns="http://www.w3.org/2000/svg" xmlns:xlink="http://www.w3.org/1999/xlink" x="0px" y="0px"
	 viewBox="43 -240 960 960" style="enable-background:new 43 -240 960 960;" xml:space="preserve">
<style type="text/css">
	.st0{fill:#414042;}
</style>
<path class="st0" d="M920.6,569.5c-2.6-113-14-138.4-19.9-155.8c-2.4-7-4.3-54-82-84.4c-57.1-22.3-134-18.5-190.9-57.2
	c-1.4-4.2-2.3-8.7-3.2-13.3c98.2-19.7,160.9-61.2,160.9-61.2c-65.6-18.7-84.3-113.5-90.3-177.7l0.7-9.1c0.2-2.3-0.6-4.7-2-6.8
	c-1.4-19.4-1.6-34.4-2.1-41V-37c0-22.3-4.4-43.5-12.3-63c-1.8-7.1-3.2-10.5-3.2-10.5s-27.3-72.9-115.9-90.9
	c-0.8-0.2-1.5-0.2-2.2-0.4c-11.2-2.4-22.9-3.7-34.8-3.7c0,0-0.1,0-0.1,0c0,0,0,0,0,0c0,0,0,0,0,0c0,0-0.1,0-0.1,0c0,0,0,0,0,0
	c-0.1,0-0.1,0-0.2,0c0,0,0,0,0,0c0,0,0,0,0,0c0,0-0.1,0-0.1,0c-11.9,0-23.6,1.3-34.8,3.7c-0.8,0.1-1.5,0.2-2.2,0.4
	c-88.7,18-115.9,90.9-115.9,90.9s-1.4,3.5-3.2,10.5c-7.9,19.5-12.3,40.7-12.3,63v0.1c-0.5,6.6-0.8,21.6-2.1,41c-1.4,2-2.2,4.4-2,6.7
	l0.7,9c-6,64.2-24.7,159.1-90.3,177.8c0,0,62.7,41.5,160.9,61.2c-0.8,4.6-1.8,9-3.2,13.3c-56.8,38.7-133.8,34.9-190.9,57.2
	c-77.7,30.4-79.6,77.4-82,84.4c-5.9,17.4-17.3,42.8-19.9,155.8c-0.3,15,0,37.6,44.8,57.3c132.8,58.2,352,58.7,352.8,58.7
	c0.7,0,210.2-0.5,352.8-58.7C920.6,607.1,920.9,584.5,920.6,569.5z"/>
</svg>
