<?xml version="1.0" encoding="utf-8"?>
<!-- Generator: Adobe Illustrator 19.0.0, SVG Export Plug-In . SVG Version: 6.00 Build 0)  -->
<svg version="1.1" id="Layer_1" xmlns="http://www.w3.org/2000/svg" xmlns:xlink="http://www.w3.org/1999/xlink" x="0px" y="0px"
	 viewBox="43 -240 960 960" style="enable-background:new 43 -240 960 960;" xml:space="preserve">
<style type="text/css">
	.st0{fill:#FFFFFF;}
</style>
<path d="M871.5,505.4h-686C126.4,505.4,78,457,78,397.9V61.7C78,2.6,126.4-45.8,185.5-45.8h686C930.6-45.8,979,2.6,979,61.7v336.2
	C979,457,930.6,505.4,871.5,505.4z"/>
<path class="st0" d="M728.8,185.8c30.8,17.8,30.8,62.3,0,80.1l-140,80.9l-140,80.9c-30.8,17.8-69.3-4.4-69.3-40L379.4,226
	l-0.1-161.7c0-35.6,38.5-57.8,69.3-40.1L588.7,105L728.8,185.8z"/>
</svg>
